# xmcd
#
# Track frame offsets:
#	150
#	16835
#	29313
#	43734
#
# Disc length: 776 seconds
#
# Revision: 1
# Processed by: cddbd v1.5.2PL0 Copyright (c) Steve Scherf et al.
# Submitted via: audiograbber 1.83.01
#
DISCID=26030604
DTITLE=Flo Rida - Can't Believe It [Single]
DYEAR=2013
DGENRE=Rap, Hip-Hop
TTITLE0=Can't Believe It (Feat. Pitbull)
TTITLE1=Tell Me When You Ready (Feat. Future)
TTITLE2=Sweet Spot 2.0 (Feat. Jennifer Lopez)
TTITLE3=DJ Tight (Feat. Cupid) "Dade County Dip"
EXTD=
EXTT0=
EXTT1=
EXTT2=
EXTT3=
PLAYORDER=
